<svg width="20" height="20" viewBox="0 0 20 20" fill="none" xmlns="http://www.w3.org/2000/svg">
<path d="M1.34156 5.22508C2.23578 3.69294 3.44874 2.47994 4.98074 1.58581C6.51298 0.691633 8.18572 0.244659 10.0002 0.244659C11.8144 0.244659 13.4877 0.69177 15.0196 1.58581C16.5517 2.47989 17.7646 3.69294 18.6588 5.22508C19.5529 6.75718 20 8.43025 20 10.2442C20 12.4232 19.3643 14.3827 18.0925 16.123C16.8208 17.8634 15.1781 19.0678 13.1643 19.7361C12.9299 19.7796 12.7563 19.749 12.6435 19.6451C12.5306 19.541 12.4743 19.4107 12.4743 19.2546C12.4743 19.2286 12.4765 18.9943 12.4808 18.5515C12.485 18.1653 12.4871 17.7791 12.4874 17.3929L12.7869 17.4447C12.9778 17.4797 13.2187 17.4945 13.5096 17.4903C13.8002 17.4862 14.102 17.4558 14.4144 17.3991C14.727 17.343 15.0178 17.2128 15.2869 17.0088C15.5558 16.8048 15.7468 16.5378 15.8597 16.2082L15.9899 15.9085C16.0767 15.7091 16.2133 15.4875 16.3999 15.2446C16.5866 15.0015 16.7754 14.8366 16.9663 14.7499L17.0575 14.6846C17.1182 14.6412 17.1746 14.5889 17.2267 14.5282C17.2788 14.4675 17.3178 14.4068 17.3438 14.3459C17.3699 14.2851 17.3483 14.2351 17.2788 14.1959C17.2092 14.1568 17.0835 14.1378 16.9011 14.1378L16.6408 14.1767C16.4672 14.2114 16.2525 14.3154 15.9963 14.4891C15.7403 14.6627 15.5298 14.8883 15.3649 15.166C15.1651 15.522 14.9244 15.7932 14.6422 15.9799C14.3602 16.1665 14.0758 16.2597 13.7894 16.2597C13.503 16.2597 13.2557 16.238 13.0473 16.1948C12.8391 16.1514 12.6437 16.0861 12.4614 15.9994C12.3832 15.4176 12.1705 14.9706 11.8234 14.6581C12.3182 14.6062 12.763 14.5279 13.158 14.4237C13.5529 14.3195 13.9609 14.1503 14.3818 13.9157C14.803 13.6814 15.1524 13.3905 15.4301 13.0435C15.7078 12.6962 15.9357 12.2404 16.1135 11.6763C16.2915 11.112 16.3804 10.461 16.3804 9.72319C16.3804 8.67268 16.0375 7.77873 15.3517 7.04085C15.673 6.25106 15.6426 5.36568 15.2606 4.38481C15.0089 4.3066 14.6356 4.36529 14.1409 4.56053C13.646 4.75586 13.2838 4.92318 13.0536 5.06191C12.8235 5.20059 12.6391 5.31812 12.5002 5.41343C11.6928 5.18783 10.8595 5.075 10.0003 5.075C9.14096 5.075 8.30753 5.18783 7.50005 5.41343L7.00528 5.10108C6.66694 4.89267 6.2674 4.70168 5.80761 4.52806C5.34754 4.35453 4.99575 4.30674 4.75258 4.38495C4.36211 5.36587 4.32732 6.2512 4.64865 7.04098C3.96293 7.77887 3.61985 8.67305 3.61985 9.72333C3.61985 10.4611 3.70914 11.1141 3.88677 11.6828C4.06463 12.2515 4.29453 12.7069 4.57655 13.05C4.85889 13.393 5.2105 13.6816 5.63143 13.9158C6.05246 14.1502 6.46062 14.3194 6.85547 14.4237C7.2505 14.5279 7.69529 14.6063 8.19001 14.6584C7.73879 15.0488 7.51314 15.6652 7.51314 16.5072V19.2543C7.51314 19.4103 7.45887 19.5406 7.35024 19.6447C7.24174 19.7487 7.07041 19.7793 6.836 19.7357C4.82195 19.0675 3.17917 17.8631 1.90756 16.1226C0.636097 14.3823 0.000137329 12.4229 0.000137329 10.2439C0.000593185 8.43011 0.447887 6.75718 1.34156 5.22508Z" fill="black"/>
</svg>
